<?xml version="1.0" encoding="UTF-8"?>
<!DOCTYPE svg PUBLIC "-//W3C//DTD SVG 1.1//EN" "http://www.w3.org/Graphics/SVG/1.1/DTD/svg11.dtd">
<svg
   viewBox="0 0 10000 5000"
  fill-rule="evenodd"  preserveAspectRatio="xMidYMid" stroke-linejoin="round"  version="1.1" xml:space="preserve" xmlns="http://www.w3.org/2000/svg">
  <path
    fill="rgb(230, 230, 230)" fill-opacity="0.4" stroke="rgb(245, 245, 245)" stroke-opacity="1"
    stroke-width="10" stroke-linejoin="round"
    d="M 5000,1230 C 5000,1230 5450,1430 5758,1845 5773,1980 5765,2156 5757,2332 5733,2575 5691,2775 5649,2975 5598,3118 5526,3233 5410,3340 5300,3401 5300,3401 5200,3370 5100,3300 5050,3233 5003,3118 4951,2975 4909,2775 4867,2575 4849,2380 4849,2150 4849,1920 4867,1725 4909,1525 5000,1230 Z"/>
  <path
    fill="hsl(32, 25%, 95%)" fill-opacity="0.4" stroke="hsl(32, 8%, 84%)" stroke-opacity="1"
    stroke-width="5"
    d="M 5067,4340 C 5272,4340 5460,4311 5633,4253 5805,4195 5966,4114 6115,4010 6264,3906 6401,3784 6527,3645 6653,3506 6767,3353 6870,3186 7047,3353 7247,3500 7471,3627 7694,3755 7937,3819 8197,3819 8412,3819 8611,3782 8795,3707 8979,3633 9137,3529 9270,3395 9403,3260 9508,3101 9585,2918 9662,2735 9700,2537 9700,2324 9700,2157 9672,1995 9616,1837 9560,1680 9480,1541 9375,1420 9270,1300 9147,1204 9005,1132 8863,1060 8703,1024 8526,1024 8405,1024 8296,1059 8201,1128 8105,1198 8058,1298 8058,1427 8058,1552 8104,1652 8197,1726 8291,1800 8395,1837 8512,1837 8605,1837 8701,1821 8798,1789 8896,1756 8992,1740 9085,1740 9160,1740 9224,1762 9277,1806 9331,1850 9374,1904 9406,1966 9439,2029 9462,2097 9476,2171 9490,2245 9497,2310 9497,2366 9497,2477 9474,2587 9427,2696 9381,2805 9318,2903 9239,2991 9160,3079 9069,3151 8966,3207 8864,3263 8757,3290 8645,3290 8416,3290 8208,3224 8019,3092 7831,2960 7648,2794 7471,2595 7294,2396 7117,2179 6940,1945 6763,1711 6575,1495 6377,1295 6179,1096 5962,930 5727,798 5492,666 5227,600 4934,600 4734,600 4547,629 4375,687 4202,745 4043,826 3896,930 3749,1035 3614,1156 3491,1295 3367,1434 3257,1587 3159,1754 3066,1680 2965,1605 2858,1528 2751,1452 2639,1382 2523,1320 2406,1257 2286,1206 2163,1167 2039,1127 1915,1108 1789,1108 1584,1108 1392,1147 1212,1226 1033,1305 876,1411 741,1545 606,1680 498,1836 419,2015 340,2193 300,2384 300,2588 300,2760 326,2927 377,3089 429,3251 504,3395 604,3520 705,3645 827,3744 971,3819 1116,3893 1281,3930 1468,3930 1603,3930 1716,3899 1806,3836 1897,3773 1943,3668 1943,3520 1943,3413 1903,3317 1824,3231 1745,3145 1652,3103 1544,3103 1456,3103 1370,3114 1286,3137 1202,3161 1116,3172 1027,3172 841,3172 710,3119 636,3012 561,2906 524,2764 524,2588 524,2458 547,2338 594,2227 641,2116 705,2019 786,1938 868,1857 964,1793 1076,1747 1188,1701 1309,1678 1440,1678 1668,1678 1874,1744 2058,1876 2242,2008 2419,2172 2589,2369 2759,2566 2928,2779 3096,3009 3264,3238 3444,3451 3637,3648 3831,3845 4044,4010 4277,4142 4510,4274 4773,4340 5067,4340 Z M 3320,1935 C 3385,1824 3457,1719 3536,1622 3615,1525 3704,1440 3802,1368 3900,1296 4007,1238 4123,1194 4240,1150 4363,1128 4494,1128 4675,1128 4840,1161 4986,1226 5133,1291 5269,1376 5395,1483 5521,1590 5639,1711 5748,1848 5857,1985 5965,2122 6069,2262 6174,2401 6279,2535 6384,2665 6489,2794 6597,2908 6709,3005 6644,3107 6571,3207 6492,3304 6413,3402 6325,3487 6227,3561 6129,3636 6023,3695 5909,3739 5795,3783 5670,3805 5535,3805 5307,3805 5088,3736 4878,3600 4668,3463 4469,3297 4280,3103 4092,2908 3917,2704 3756,2491 3596,2278 3450,2092 3320,1935 Z" />
</svg>
